PathFileType	4	(X/Y/Z)	/Users/itak/Documents/Research/Walk-IL/dataset/trc/00537_00009.trc
DataRate	CameraRate	NumFrames	NumMarkers	Units	OrigDataRate	OrigDataStartFrame	OrigNumFrames
100.000000	100.000000	4	53	mm	100.000000	191	765
Frame#	Time	RPSI			LPSI			L3			STRN			T10			C7			CLAV			RBAK			LBAK			LSHO			LUPA			LAEL			LAOL			LWTS			LWPS			LFRA			LIFD			LHPS			LHTS			RSHO			RUPA			RAEL			RAOL			RWTS			RWPS			RFRA			RIFD			RHTS			RHPS			RBHD			LFHD			RFHD			LBHD			LHIP			RHIP			RASI			LASI			LKNE			LTHI			LANK			LTIP			LTOE			LMT1			LMT5			LHEE			RKNE			RTHI			RANK			RTIP			RTOE			RMT1			RMT5			RHEE			
		X1	Y1	Z1	X2	Y2	Z2	X3	Y3	Z3	X4	Y4	Z4	X5	Y5	Z5	X6	Y6	Z6	X7	Y7	Z7	X8	Y8	Z8	X9	Y9	Z9	X10	Y10	Z10	X11	Y11	Z11	X12	Y12	Z12	X13	Y13	Z13	X14	Y14	Z14	X15	Y15	Z15	X16	Y16	Z16	X17	Y17	Z17	X18	Y18	Z18	X19	Y19	Z19	X20	Y20	Z20	X21	Y21	Z21	X22	Y22	Z22	X23	Y23	Z23	X24	Y24	Z24	X25	Y25	Z25	X26	Y26	Z26	X27	Y27	Z27	X28	Y28	Z28	X29	Y29	Z29	X30	Y30	Z30	X31	Y31	Z31	X32	Y32	Z32	X33	Y33	Z33	X34	Y34	Z34	X35	Y35	Z35	X36	Y36	Z36	X37	Y37	Z37	X38	Y38	Z38	X39	Y39	Z39	X40	Y40	Z40	X41	Y41	Z41	X42	Y42	Z42	X43	Y43	Z43	X44	Y44	Z44	X45	Y45	Z45	X46	Y46	Z46	X47	Y47	Z47	X48	Y48	Z48	X49	Y49	Z49	X50	Y50	Z50	X51	Y51	Z51	X52	Y52	Z52	X53	Y53	Z53	

192	1.91	-751.4293823242188	1017.17626953125	392.6437072753906	-742.7271118164062	1017.94189453125	258.8719177246094	-740.580810546875	1115.179321289062	319.2245178222656	-497.9149169921875	1290.658325195312	321.450927734375	-744.9110717773438	1240.193115234375	315.4024353027344	-684.2275390625	1510.56201171875	323.7529296875	-512.0061645507812	1403.118408203125	320.5177917480469	-762.6636962890625	1391.69287109375	412.6563415527344	-715.81494140625	1457.916748046875	230.0202484130859	-611.5789184570312	1476.686889648438	152.9540557861328	-618.7158203125	1349.63623046875	73.91191864013672	-598.8876953125	1124.986206054688	59.79042053222656	-691.47802734375	1121.131591796875	99.14948272705078	-523.65673828125	878.6166381835938	120.195198059082	-560.6884155273438	857.4557495117188	43.88832855224609	-578.6976928710938	1038.023803710938	57.36903762817383	-535.4053344726562	707.8710327148438	116.2719497680664	-556.0379638671875	796.9003295898438	53.37785720825195	-509.3076171875	800.393798828125	102.7401580810547	-628.62646484375	1472.845947265625	481.4355163574219	-649.8851928710938	1409.306396484375	550.2550048828125	-662.0416870117188	1119.0478515625	596.854736328125	-716.2189331054688	1102.779663085938	568.9287109375	-531.9105834960938	896.0032348632812	560.7560424804688	-578.1087646484375	876.72607421875	626.733154296875	-652.0942993164062	1064.503173828125	606.4199829101562	-523.5848388671875	723.2738647460938	565.66015625	-504.6546936035156	804.404296875	577.1832885742188	-560.9118041992188	802.687744140625	626.0285034179688	-611.3525390625	1686.994750976562	381.0223388671875	-441.449462890625	1702.99609375	262.6343078613281	-473.844970703125	1706.80615234375	403.0874938964844	-566.9672241210938	1681.271606445312	221.316162109375	-618.2723999023438	935.22705078125	130.0332489013672	-627.7052001953125	948.98388671875	519.5803833007812	-543.2947387695312	976.8923950195312	461.12890625	-537.1735229492188	956.0757446289062	186.5254211425781	-610.3131713867188	487.1414794921875	220.5242919921875	-600.9624633789062	649.9689331054688	172.9461822509766	-711.3786010742188	31.61673355102539	258.4326782226562	-684.2361450195312	244.6647186279297	231.9074096679688	-504.8025207519531	39.4514045715332	328.26220703125	-579.416015625	41.42724227905273	359.8507690429688	-587.7557983398438	34.34450912475586	251.7166595458984	-784.3179931640625	35.17029190063477	310.0245666503906	-512.2936401367188	514.8932495117188	494.3907470703125	-564.0845336914062	800.9964599609375	520.7323608398438	-689.7064208984375	66.94956970214844	495.7828369140625	-533.6683959960938	366.6537780761719	489.7965698242188	-471.4547729492188	55.24631500244141	468.8624877929688	-531.9544067382812	53.4770622253418	423.5555725097656	-560.95361328125	55.32322311401367	523.3545532226562	-741.6343383789062	64.31779479980469	437.0578308105469	
193	1.92	-750.1519775390625	1017.284362792969	392.5611877441406	-741.64453125	1017.963073730469	258.7509765625	-739.4403686523438	1115.244750976562	318.9372863769531	-496.4874877929688	1290.5791015625	320.9689331054688	-743.4821166992188	1240.239135742188	314.9479675292969	-682.6627807617188	1510.60009765625	323.1520080566406	-510.4531555175781	1403.119262695312	319.9590759277344	-761.2044677734375	1391.786499023438	412.0730895996094	-714.2696533203125	1457.897094726562	229.4335021972656	-610.0116577148438	1476.598754882812	152.3587341308594	-617.17138671875	1349.5205078125	73.42147064208984	-597.5369262695312	1124.840698242188	59.3087272644043	-690.114501953125	1121.09912109375	98.69828796386719	-522.734619140625	878.3085327148438	119.6029815673828	-559.780029296875	857.267333984375	43.30419921875	-577.5155639648438	1037.861328125	56.84286880493164	-534.8574829101562	707.5947875976562	115.6525115966797	-555.228515625	796.6715698242188	52.75982284545898	-508.5247192382812	800.0431518554688	102.1453094482422	-627.1707763671875	1472.910522460938	480.9110717773438	-648.5139770507812	1409.432861328125	549.7156372070312	-661.0396118164062	1119.20654296875	596.4154663085938	-715.2225952148438	1102.981567382812	568.3856201171875	-531.1237182617188	895.9713745117188	560.8056030273438	-577.5375366210938	876.8265380859375	626.7130126953125	-651.1630249023438	1064.675903320312	606.0568237304688	-523.0172119140625	723.2513427734375	565.8478393554688	-504.1236267089844	804.3276977539062	577.3486328125	-560.3836059570312	802.7741088867188	626.0598754882812	-609.6724853515625	1686.957153320312	380.4541320800781	-439.6353759765625	1702.820678710938	262.2206115722656	-472.1010437011719	1706.686645507812	402.6246337890625	-565.140625	1681.281616210938	220.7878723144531	-617.32080078125	934.97021484375	129.8470916748047	-626.129150390625	949.2882690429688	519.372802734375	-541.8887939453125	977.0418090820312	460.52587890625	-536.224609375	955.8690795898438	185.9711303710938	-609.8370361328125	487.0054626464844	220.2671356201172	-600.436767578125	649.8037109375	172.6006164550781	-711.3748168945312	31.6218204498291	258.4393920898438	-684.0475463867188	244.6212768554688	231.8212432861328	-504.8025512695312	39.42900466918945	328.259033203125	-579.3848266601562	41.45392990112305	359.8163757324219	-587.7169189453125	34.35971450805664	251.6771392822266	-784.350341796875	35.21477127075195	310.0556945800781	-508.79833984375	515.6212768554688	493.8056640625	-561.9883422851562	801.47998046875	520.2996215820312	-682.3973999023438	66.08605194091797	494.8515625	-528.9873657226562	367.1889343261719	489.0773010253906	-464.1279602050781	56.02435302734375	467.48095703125	-524.63134765625	53.9149169921875	422.2535095214844	-553.5482177734375	55.30591201782227	522.1902465820312	-734.3724975585938	63.23141098022461	436.1624145507812	
194	1.93	-748.8472900390625	1017.387329101562	392.4859008789062	-740.5104370117188	1017.969848632812	258.6445922851562	-738.2463989257812	1115.314697265625	318.673583984375	-494.9942016601562	1290.485717773438	320.5010986328125	-741.987060546875	1240.272338867188	314.5104675292969	-681.0333862304688	1510.624755859375	322.5785827636719	-508.8460998535156	1403.109741210938	319.4214172363281	-759.6702270507812	1391.874145507812	411.5315551757812	-712.65625	1457.880859375	228.8742218017578	-608.39013671875	1476.504516601562	151.7965240478516	-615.5858764648438	1349.392211914062	72.95528411865234	-596.126953125	1124.703735351562	58.85620880126953	-688.6996459960938	1121.046875	98.27867126464844	-521.7085571289062	878.02392578125	119.0443649291992	-558.7832641601562	857.0697021484375	42.78028106689453	-576.2628173828125	1037.700317382812	56.35531234741211	-534.1776733398438	707.3179931640625	115.1136627197266	-554.316650390625	796.448486328125	52.2082633972168	-507.6260070800781	799.7167358398438	101.6105651855469	-625.609619140625	1472.973999023438	480.4089050292969	-647.0484619140625	1409.559936523438	549.2052612304688	-659.96728515625	1119.378051757812	596.0657958984375	-714.1643676757812	1103.2080078125	567.9671020507812	-530.343017578125	895.9140014648438	560.8594970703125	-576.8692016601562	876.917724609375	626.6937255859375	-650.1303100585938	1064.860961914062	605.7472534179688	-522.4741821289062	723.191162109375	565.9950561523438	-503.5764770507812	804.2315673828125	577.4736938476562	-559.7988891601562	802.8412475585938	626.0980224609375	-607.9545288085938	1686.9111328125	379.9023742675781	-437.7787780761719	1702.659912109375	261.8173828125	-470.3271789550781	1706.5615234375	402.1845397949219	-563.2767333984375	1681.280883789062	220.2705078125	-616.3174438476562	934.7127685546875	129.706298828125	-624.556396484375	949.5638427734375	519.179443359375	-540.4671630859375	977.1802368164062	459.9701232910156	-535.2158813476562	955.6416015625	185.4672393798828	-609.2542114257812	486.8579711914062	220.0293579101562	-599.8246459960938	649.6603393554688	172.2806243896484	-711.37109375	31.62793350219727	258.4486389160156	-683.8165283203125	244.5611267089844	231.7615814208984	-504.8023986816406	39.40493011474609	328.2613525390625	-579.3465576171875	41.4799919128418	359.7806396484375	-587.6806030273438	34.37326049804688	251.6419372558594	-784.3850708007812	35.26382064819336	310.09033203125	-505.3678588867188	516.33544921875	493.2127990722656	-559.9166259765625	801.9404296875	519.8850708007812	-674.5498657226562	65.02494812011719	493.9297485351562	-524.2152099609375	367.7308654785156	488.3814086914062	-456.2484741210938	56.74395751953125	466.279541015625	-516.71875	54.26397705078125	421.0946655273438	-545.646240234375	55.19770050048828	521.1442260742188	-726.5396728515625	61.91328811645508	435.2524719238281	
195	1.94	-747.5158081054688	1017.473693847656	392.4058837890625	-739.3185424804688	1017.954345703125	258.5408325195312	-737.0045166015625	1115.384765625	318.4325561523438	-493.4370727539062	1290.373657226562	320.0528564453125	-740.4380493164062	1240.293701171875	314.0967102050781	-679.3353881835938	1510.633422851562	322.0347290039062	-507.1866455078125	1403.076782226562	318.91162109375	-758.0598754882812	1391.957397460938	411.0341491699219	-710.9719848632812	1457.86962890625	228.3464050292969	-606.7113037109375	1476.3984375	151.2700347900391	-613.9609375	1349.24658203125	72.51131439208984	-594.65478515625	1124.571899414062	58.43282699584961	-687.2373046875	1120.973388671875	97.88138580322266	-520.5665283203125	877.7649536132812	118.525520324707	-557.6941528320312	856.8589477539062	42.31655502319336	-574.9340209960938	1037.540283203125	55.90897750854492	-533.34619140625	707.03662109375	114.6543960571289	-553.298583984375	796.23193359375	51.72517395019531	-506.6099853515625	799.4147338867188	101.138053894043	-623.9420776367188	1473.037841796875	479.9246826171875	-645.4823608398438	1409.680297851562	548.724853515625	-658.8331909179688	1119.56005859375	595.8034057617188	-713.0433959960938	1103.451049804688	567.661376953125	-529.551513671875	895.8330078125	560.914306640625	-576.1075439453125	876.9929809570312	626.6796875	-649.0070190429688	1065.054809570312	605.4947509765625	-521.945556640625	723.0917358398438	566.1124877929688	-502.9851684570312	804.1157836914062	577.5682373046875	-559.1605834960938	802.8846435546875	626.148193359375	-606.192626953125	1686.853393554688	379.3693542480469	-435.8812255859375	1702.509887695312	261.4201049804688	-468.5226745605469	1706.42236328125	401.7670288085938	-561.3781127929688	1681.260864257812	219.7657470703125	-615.23779296875	934.4519653320312	129.6039276123047	-622.9999389648438	949.8038940429688	518.999267578125	-539.033203125	977.3069458007812	459.4671936035156	-534.146484375	955.404296875	185.0132598876953	-608.5704956054688	486.7031860351562	219.8230743408203	-599.1149291992188	649.5179443359375	171.9960327148438	-711.368896484375	31.63506889343262	258.4610290527344	-683.5352172851562	244.4846954345703	231.7318267822266	-504.8017272949219	39.3798942565918	328.2683715820312	-579.3094482421875	41.50179290771484	359.7476196289062	-587.647705078125	34.38420867919922	251.6111297607422	-784.4193725585938	35.31459045410156	310.1270446777344	-501.9829711914062	517.035400390625	492.6155090332031	-557.861083984375	802.373291015625	519.4862670898438	-666.19091796875	63.80597686767578	493.0333557128906	-519.3451538085938	368.2802734375	487.7093200683594	-447.8434753417969	57.45225143432617	465.2416687011719	-508.2600708007812	54.5705680847168	420.0753479003906	-537.25927734375	55.04314422607422	520.2046508789062	-718.1685180664062	60.39168548583984	434.3526000976562	
